<svg xmlns="http://www.w3.org/2000/svg" xmlns:xlink="http://www.w3.org/1999/xlink" width="133" height="133" viewBox="0 0 133 133"><rect width="100%" height="100%" fill="#DDDDDD"/><path d="M30.50 71.61L32.97 71.61L32.97 73.37L25.37 73.37L25.37 71.61L28.15 71.61L28.15 63.60Q28.15 63.13 28.18 62.62L28.18 62.62L26.21 64.28Q26.03 64.41 25.87 64.44Q25.70 64.48 25.56 64.45Q25.41 64.42 25.29 64.35Q25.18 64.28 25.12 64.19L25.12 64.19L24.38 63.17L28.57 59.61L30.50 59.61L30.50 71.61ZM36.42 63.68L35.18 63.46Q35.33 62.47 35.73 61.73Q36.14 60.98 36.76 60.48Q37.37 59.98 38.16 59.73Q38.95 59.48 39.87 59.48L39.87 59.48Q40.82 59.48 41.58 59.75Q42.35 60.02 42.89 60.50Q43.43 60.98 43.72 61.63Q44.01 62.27 44.01 63.02L44.01 63.02Q44.01 63.68 43.86 64.18Q43.71 64.68 43.44 65.05Q43.16 65.42 42.75 65.67Q42.35 65.93 41.83 66.10L41.83 66.10Q43.07 66.49 43.68 67.29Q44.28 68.09 44.28 69.29L44.28 69.29Q44.28 70.32 43.90 71.11Q43.52 71.90 42.88 72.43Q42.23 72.97 41.38 73.24Q40.53 73.52 39.58 73.52L39.58 73.52Q38.55 73.52 37.78 73.28Q37.01 73.05 36.44 72.58Q35.87 72.11 35.47 71.44Q35.07 70.77 34.78 69.88L34.78 69.88L35.82 69.45Q36.23 69.28 36.58 69.36Q36.94 69.44 37.10 69.75L37.10 69.75Q37.27 70.08 37.48 70.40Q37.68 70.73 37.97 70.98Q38.25 71.23 38.64 71.39Q39.02 71.54 39.55 71.54L39.55 71.54Q40.15 71.54 40.60 71.35Q41.04 71.16 41.34 70.84Q41.64 70.53 41.79 70.14Q41.94 69.76 41.94 69.37L41.94 69.37Q41.94 68.88 41.83 68.47Q41.73 68.07 41.40 67.78Q41.06 67.50 40.44 67.34Q39.82 67.17 38.77 67.17L38.77 67.17L38.77 65.50Q39.64 65.49 40.21 65.34Q40.78 65.19 41.12 64.92Q41.45 64.65 41.59 64.27Q41.72 63.89 41.72 63.43L41.72 63.43Q41.72 62.46 41.18 61.96Q40.64 61.46 39.73 61.46L39.73 61.46Q39.32 61.46 38.96 61.57Q38.61 61.69 38.33 61.91Q38.05 62.12 37.86 62.41Q37.67 62.69 37.58 63.03L37.58 63.03Q37.42 63.47 37.15 63.61Q36.89 63.75 36.42 63.68L36.42 63.68ZM47.44 63.68L46.20 63.46Q46.35 62.47 46.75 61.73Q47.16 60.98 47.78 60.48Q48.39 59.98 49.18 59.73Q49.97 59.48 50.89 59.48L50.89 59.48Q51.84 59.48 52.60 59.75Q53.37 60.02 53.91 60.50Q54.45 60.98 54.74 61.63Q55.03 62.27 55.03 63.02L55.03 63.02Q55.03 63.68 54.88 64.18Q54.73 64.68 54.46 65.05Q54.18 65.42 53.77 65.67Q53.37 65.93 52.85 66.10L52.85 66.10Q54.09 66.49 54.70 67.29Q55.30 68.09 55.30 69.29L55.30 69.29Q55.30 70.32 54.92 71.11Q54.54 71.90 53.90 72.43Q53.25 72.97 52.40 73.24Q51.55 73.52 50.60 73.52L50.60 73.52Q49.57 73.52 48.80 73.28Q48.03 73.05 47.46 72.58Q46.89 72.11 46.49 71.44Q46.09 70.77 45.80 69.88L45.80 69.88L46.84 69.45Q47.25 69.28 47.60 69.36Q47.96 69.44 48.12 69.75L48.12 69.75Q48.29 70.08 48.50 70.40Q48.70 70.73 48.99 70.98Q49.27 71.23 49.66 71.39Q50.04 71.54 50.57 71.54L50.57 71.54Q51.17 71.54 51.62 71.35Q52.06 71.16 52.36 70.84Q52.66 70.53 52.81 70.14Q52.96 69.76 52.96 69.37L52.96 69.37Q52.96 68.88 52.85 68.47Q52.75 68.07 52.42 67.78Q52.08 67.50 51.46 67.34Q50.84 67.17 49.79 67.17L49.79 67.17L49.79 65.50Q50.66 65.49 51.23 65.34Q51.80 65.19 52.14 64.92Q52.47 64.65 52.61 64.27Q52.74 63.89 52.74 63.43L52.74 63.43Q52.74 62.46 52.20 61.96Q51.66 61.46 50.75 61.46L50.75 61.46Q50.34 61.46 49.98 61.57Q49.63 61.69 49.35 61.91Q49.07 62.12 48.88 62.41Q48.69 62.69 48.60 63.03L48.60 63.03Q48.44 63.47 48.17 63.61Q47.91 63.75 47.44 63.68L47.44 63.68ZM70.81 70.22L69.56 71.45L66.34 68.23L63.09 71.47L61.85 70.24L65.10 66.98L62.00 63.89L63.24 62.65L66.33 65.75L69.41 62.67L70.67 63.91L67.58 66.99L70.81 70.22ZM83.81 71.61L86.28 71.61L86.28 73.37L78.68 73.37L78.68 71.61L81.47 71.61L81.47 63.60Q81.47 63.13 81.50 62.62L81.50 62.62L79.52 64.28Q79.35 64.41 79.18 64.44Q79.02 64.48 78.87 64.45Q78.72 64.42 78.61 64.35Q78.49 64.28 78.44 64.19L78.44 64.19L77.70 63.17L81.89 59.61L83.81 59.61L83.81 71.61ZM89.73 63.68L88.50 63.46Q88.64 62.47 89.05 61.73Q89.46 60.98 90.07 60.48Q90.68 59.98 91.48 59.73Q92.27 59.48 93.18 59.48L93.18 59.48Q94.13 59.48 94.90 59.75Q95.66 60.02 96.20 60.50Q96.74 60.98 97.03 61.63Q97.32 62.27 97.32 63.02L97.32 63.02Q97.32 63.68 97.18 64.18Q97.03 64.68 96.75 65.05Q96.48 65.42 96.07 65.67Q95.66 65.93 95.15 66.10L95.15 66.10Q96.38 66.49 96.99 67.29Q97.60 68.09 97.60 69.29L97.60 69.29Q97.60 70.32 97.22 71.11Q96.84 71.90 96.19 72.43Q95.55 72.97 94.70 73.24Q93.85 73.52 92.90 73.52L92.90 73.52Q91.86 73.52 91.09 73.28Q90.32 73.05 89.75 72.58Q89.18 72.11 88.78 71.44Q88.38 70.77 88.10 69.88L88.10 69.88L89.13 69.45Q89.54 69.28 89.90 69.36Q90.25 69.44 90.42 69.75L90.42 69.75Q90.59 70.08 90.79 70.40Q91.00 70.73 91.28 70.98Q91.57 71.23 91.95 71.39Q92.34 71.54 92.87 71.54L92.87 71.54Q93.47 71.54 93.91 71.35Q94.36 71.16 94.66 70.84Q94.96 70.53 95.10 70.14Q95.25 69.76 95.25 69.37L95.25 69.37Q95.25 68.88 95.15 68.47Q95.04 68.07 94.71 67.78Q94.38 67.50 93.76 67.34Q93.13 67.17 92.09 67.17L92.09 67.17L92.09 65.50Q92.95 65.49 93.52 65.34Q94.09 65.19 94.43 64.92Q94.77 64.65 94.90 64.27Q95.03 63.89 95.03 63.43L95.03 63.43Q95.03 62.46 94.49 61.96Q93.95 61.46 93.05 61.46L93.05 61.46Q92.63 61.46 92.28 61.57Q91.93 61.69 91.65 61.91Q91.37 62.12 91.18 62.41Q90.99 62.69 90.89 63.03L90.89 63.03Q90.73 63.47 90.47 63.61Q90.21 63.75 89.73 63.68L89.73 63.68ZM100.75 63.68L99.52 63.46Q99.66 62.47 100.07 61.73Q100.48 60.98 101.09 60.48Q101.70 59.98 102.50 59.73Q103.29 59.48 104.20 59.48L104.20 59.48Q105.15 59.48 105.92 59.75Q106.68 60.02 107.22 60.50Q107.76 60.98 108.05 61.63Q108.34 62.27 108.34 63.02L108.34 63.02Q108.34 63.68 108.20 64.18Q108.05 64.68 107.77 65.05Q107.50 65.42 107.09 65.67Q106.68 65.93 106.17 66.10L106.17 66.10Q107.40 66.49 108.01 67.29Q108.62 68.09 108.62 69.29L108.62 69.29Q108.62 70.32 108.24 71.11Q107.86 71.90 107.21 72.43Q106.57 72.97 105.72 73.24Q104.87 73.52 103.92 73.52L103.92 73.52Q102.88 73.52 102.11 73.28Q101.34 73.05 100.77 72.58Q100.20 72.11 99.80 71.44Q99.40 70.77 99.12 69.88L99.12 69.88L100.15 69.45Q100.56 69.28 100.92 69.36Q101.27 69.44 101.44 69.75L101.44 69.75Q101.61 70.08 101.81 70.40Q102.02 70.73 102.30 70.98Q102.59 71.23 102.97 71.39Q103.36 71.54 103.89 71.54L103.89 71.54Q104.49 71.54 104.93 71.35Q105.38 71.16 105.68 70.84Q105.98 70.53 106.12 70.14Q106.27 69.76 106.27 69.37L106.27 69.37Q106.27 68.88 106.17 68.47Q106.06 68.07 105.73 67.78Q105.40 67.50 104.78 67.34Q104.15 67.17 103.11 67.17L103.11 67.17L103.11 65.50Q103.97 65.49 104.54 65.34Q105.11 65.19 105.45 64.92Q105.79 64.65 105.92 64.27Q106.05 63.89 106.05 63.43L106.05 63.43Q106.05 62.46 105.51 61.96Q104.97 61.46 104.07 61.46L104.07 61.46Q103.65 61.46 103.30 61.57Q102.95 61.69 102.67 61.91Q102.39 62.12 102.20 62.41Q102.01 62.69 101.91 63.03L101.91 63.03Q101.75 63.47 101.49 63.61Q101.23 63.75 100.75 63.68L100.75 63.68Z" fill="#999999"/></svg>